<svg width="800" height="600" xmlns="http://www.w3.org/2000/svg">
 <g id="Layer_1">
  <title>Layer 1</title>
  <path d="m469,141c1,0 3.08954,1.87181 6,4c5.16873,3.77946 9.30368,8.54413 17,14c10.44745,7.40613 21.71387,17.42801 35,26c4.89966,3.16119 10,7 13,10c3,3 6.7265,6.29362 11,10c3.77728,3.27602 9.16119,6.7464 14,10c4.14923,2.78995 8.95074,6.08371 14,9c8.91547,5.14925 18.12555,10.77538 29,17c5.06055,2.8967 8.88855,4.19409 14,7c1.96014,1.07602 3,2 5,4c1,1 2,2 2,3c0,1 0.38269,2.07611 0,3c-0.5412,1.30655 -5.37201,3.3851 -9,6c-5.73633,4.13452 -9.80835,7.34546 -15,10c-6.78082,3.4671 -11.04736,5.9379 -15,9c-5.06189,3.92142 -9.8313,7.22055 -15,11c-2.91046,2.12817 -6,6 -9,9c-2,2 -3.62488,5.6297 -6,9c-2.07697,2.94724 -5.81268,5.20682 -8,7c-2.78833,2.28589 -5.81268,5.20682 -8,7c-2.78833,2.28589 -6,5 -9,7c-3,2 -5.31,3.33749 -8,5c-2.40601,1.487 -4,3 -6,4c-2,1 -4,3 -6,5c-1,1 -4,2 -6,4c-1,1 -4.06601,1.87766 -6,3c-3.11847,1.80972 -5,4 -7,5c-2,1 -4.85272,2.1731 -6,3c-1.814,1.30746 -3.70547,2.34619 -6,4c-1.814,1.30746 -3.41885,0.41885 -5,2c-1.58115,1.58115 -3.02582,2.67963 -5,3c-3.12143,0.50653 -4,2 -6,3c-2,1 -3.186,0.69254 -5,2c-1.14728,0.8269 -3.15225,1.23462 -5,2c-1.30655,0.5412 -2,1 -3,2c-1,1 -1.29291,1.29291 -2,2c-0.70709,0.70709 -1,1 -2,1c-1,0 -0.76538,-0.15225 0,-2c0.5412,-1.30655 2.36166,-4.30539 5,-9c2.44962,-4.35883 7,-9 11,-13c4,-4 7,-8 10,-12c3,-4 4.724,-8.22272 8,-12c2.77979,-3.20511 4.19028,-6.88153 6,-10c1.12234,-1.93399 2.87766,-4.06601 4,-6c1.80972,-3.11847 6.41589,-5.76108 8,-9c1.38934,-2.84073 3.34619,-4.70547 5,-7c1.30746,-1.814 2.61383,-3.297 5,-6c1.47986,-1.67633 2.48627,-2.82376 3,-5c0.22974,-0.97324 1,-2 1,-3c0,-1 0.70709,-2.29291 0,-3c-0.70709,-0.70709 -2,0 -4,0c-1,0 -3,0 -6,0c-2,0 -5,0 -7,0c-2,0 -4,1 -6,2c-2,1 -4,2 -6,3c-2,1 -4,3 -6,4c-2,1 -3.59399,3.513 -6,5c-2.69,1.66251 -3.88153,2.19028 -7,4c-1.93399,1.12234 -4.22937,1.33197 -8,3c-3.29733,1.45865 -5.94342,3.14774 -11,5c-2.96933,1.08768 -6.64749,3.9725 -11,5c-3.89301,0.91901 -9.01947,0.60583 -13,1c-5.07422,0.50244 -9.94672,1.49875 -17,2c-4.98743,0.35443 -11,0 -18,0c-4,0 -8,0 -12,0c-4,0 -8.03873,-0.48056 -11,0c-3.12143,0.50653 -6,1 -8,1c-2,0 -3.87857,0.49347 -7,1c-2.96127,0.48056 -5,0 -7,1c-2,1 -5,1 -7,1c-2,0 -5.02582,0.67963 -7,1c-3.12143,0.50653 -4,1 -7,1c-2,0 -4,1 -7,1c-2,0 -4.02582,0.67963 -6,1c-3.12143,0.50653 -4.0535,0.5405 -6,1c-2.17624,0.51373 -3,1 -5,1c-1,0 -2,0 -3,0c-2,0 -3,0 -4,0c-1,0 -2,0 -3,0c-1,0 -1,-1 -1,-2c0,-1 0,-2 0,-3c0,-1 1.1731,-2.85272 2,-4c1.30746,-1.814 1.5582,-3.51929 5,-6c1.814,-1.30746 5.04733,-5.9379 9,-9c5.06186,-3.92142 10.21167,-8.71411 13,-11c4.37469,-3.5864 7,-7 10,-10c2,-2 4.5582,-4.51929 8,-7c1.814,-1.30746 4.34619,-2.70547 6,-5c1.30746,-1.814 2,-3 3,-5c1,-2 2,-3 2,-4c0,-2 0.68927,-3.08026 0,-6c-0.51373,-2.17625 -3.41885,-3.41885 -5,-5c-1.58115,-1.58115 -2.82376,-3.48625 -5,-4c-0.97324,-0.22975 -2.41885,-1.41885 -4,-3c-1.58115,-1.58115 -4.13202,-2.75531 -8,-5c-3.11847,-1.80972 -6.05664,-3.91753 -9,-6c-4.0817,-2.88786 -5.9183,-4.11214 -10,-7c-2.94336,-2.08247 -6.1731,-3.85274 -7,-5c-1.30746,-1.814 -3.48627,-2.82375 -4,-5c-0.22977,-0.97325 0,-2 1,-3c1,-1 2,-1 4,-1c3,0 6,0 11,0c6,0 16.0174,0.44077 25,1c8.04669,0.50096 14.92578,1.49756 20,2c4.97568,0.49269 9,1 13,1c2,0 3.87857,0.49345 7,1c2.96127,0.48055 5.03873,-0.48055 8,0c3.12143,0.50655 7.07843,0.78986 10,2c2.06586,0.85571 6.133,0.5695 10,2c2.09717,0.7758 7.22937,1.33199 11,3c3.29733,1.45863 8.02521,2.88133 13,4c4.02264,0.90456 7.98453,3.08075 13,4c5.98309,1.0966 12,2 16,3c4,1 8,1 12,1c4,0 7,0 10,0c3,0 6,0 8,0c3,0 7,0 9,0c3,0 5,0 8,0c2,0 4,0 6,0c1,0 2,0 3,0c1,0 2.29291,0.70711 3,0c0.70709,-0.70711 0.38934,-3.15927 -1,-6c-1.58411,-3.23892 -4.21005,-6.85075 -7,-11c-3.2536,-4.83881 -5.66446,-8.45807 -8,-12c-2.96448,-4.49576 -5,-8 -7,-12c-2,-4 -4.20682,-5.81265 -6,-8c-2.28589,-2.78833 -3.14429,-4.93414 -4,-7c-1.21014,-2.92157 -2.41589,-4.76108 -4,-8c-1.38934,-2.84073 -2,-6 -3,-8c-1,-2 -1.82443,-4.09789 -3,-6c-1.05145,-1.70131 -0.4588,-3.69344 -1,-5c-0.76538,-1.84776 -1.1731,-3.85274 -2,-5c-1.30746,-1.814 -2,-3 -2,-4c0,-1 -1,-1 -1,-2c0,-1 -1.4588,-0.69344 -2,-2c-0.76538,-1.84776 0,-3 -1,-3l0,-1l-1,0" id="svg_1" stroke="#000" fill="none"/>
 </g>
</svg>