<svg width="800" height="600" xmlns="http://www.w3.org/2000/svg">
 <g id="Layer_1">
  <title>Layer 1</title>
  <path d="m356,122c-1,0 -3,1 -4,2c-3,3 -5.38074,5.52222 -8,8c-3.63226,3.43608 -7,7 -10,10c-4,4 -8.724,8.22273 -12,12c-3.70639,4.2735 -8.40402,8.41156 -13,12c-4.45877,3.48129 -8.21167,6.71413 -11,9c-3.28101,2.68979 -7.48691,5.08052 -10,7c-2.86536,2.18855 -5.13202,4.75531 -9,7c-3.11847,1.80972 -6.13202,4.75531 -10,7c-3.11847,1.80972 -5.71899,5.31021 -9,8c-2.78833,2.28587 -6.37201,3.3851 -10,6c-3.4418,2.48071 -6,5 -8,7c-3,3 -5,4 -7,6c-3,3 -5.21167,4.71413 -8,7c-3.28101,2.68979 -5.71899,5.31021 -9,8c-2.78833,2.28587 -5.81265,4.2068 -8,6c-2.78833,2.28587 -6,3 -8,5c-2,2 -4.82443,2.09789 -6,4c-0.52573,0.85065 0,2 0,4c0,1 -0.22939,3.25934 2,5c4.59599,3.58844 8.73976,5.49445 16,9c4.84946,2.34152 10.07689,4.73145 14,6c5.12395,1.65686 11,4 15,6c6,3 10.08743,3.79395 15,6c4.07965,1.83203 7,4 10,5c6,2 9.86829,4.28857 14,6c2.92157,1.21014 7.07843,3.78986 10,5c4.13171,1.71143 7.85077,4.21005 12,7c4.83881,3.2536 9.76303,5.38055 16,9c5.802,3.36703 12.21921,6.5329 19,10c5.19165,2.65454 9.95328,5.07193 13,7c4.92722,3.1181 9.77637,6.40894 15,9c4.82428,2.39297 9.94342,4.14774 15,6c2.96933,1.08768 4.87857,1.49347 8,2c0.98709,0.16019 2.61105,-0.07193 5,2c1.68924,1.46509 3.186,2.69254 5,4c2.29453,1.65381 3.07611,2.61731 4,3c1.30655,0.5412 2.4588,0.69345 3,2c0.38269,0.92389 1,1 2,1l-1,0l0,-1l-2,0" id="svg_1" stroke="#000" fill="none"/>
  <path d="m352,125c0,-1 0,-2 0,-3c0,-1 0.29291,-1.29289 1,-2c0.70709,-0.70711 0.61731,-1.07612 1,-2c0.5412,-1.30656 1.69345,-2.4588 3,-3c0.92389,-0.38268 2.07611,-1.61732 3,-2c1.30655,-0.5412 1.29291,-1.29289 2,-2c0.70709,-0.70711 2,-2 3,-3c1,-1 1.15225,-1.23463 3,-2c1.30655,-0.5412 2,-2 3,-2c1,0 2.15225,-0.23463 4,-1c2.61313,-1.08239 3.02676,-1.77025 4,-2c2.17624,-0.51374 3.02676,-0.77025 4,-1c2.17624,-0.51374 2.29291,-1.29289 3,-2c0.70709,-0.70711 1,-1 2,-1c1,0 1.69345,-0.4588 3,-1c1.84775,-0.76537 3,0 4,0c2,0 2.29291,-0.29289 3,-1c0.70709,-0.70711 2.29291,-0.70711 3,0c0.70709,0.70711 -0.61731,2.07612 -1,3c-0.5412,1.30656 -1.87766,3.066 -3,5c-1.80972,3.11848 -3.19028,4.88152 -5,8c-2.24469,3.868 -4.11215,6.9183 -7,11c-2.08246,2.94335 -5.3851,7.37201 -8,11c-1.65381,2.29454 -4,6 -6,9c-2,3 -4.69254,6.186 -6,8c-2.48071,3.4418 -4,6 -5,8c-1,2 -2.77023,5.02675 -3,6c-0.51373,2.17625 -2,3 -3,5c-1,2 -0.94855,3.29869 -2,5c-1.17557,1.90211 -2.34619,2.70546 -4,5c-1.30746,1.814 -2.4588,2.69344 -3,4c-0.38269,0.92387 -1,3 -2,4c-1,1 -1.61731,2.07613 -2,3c-0.5412,1.30656 -1.29291,1.29289 -2,2c-1.41422,1.41422 -1.61731,3.07613 -2,4c-0.5412,1.30656 -0.94855,2.29869 -2,4c-1.17557,1.90211 -2,2 -3,3c-1,1 -3.70709,3.29289 -3,4c0.70709,0.70711 2,0 3,0c1,0 3,0 5,0c2,0 3,0 5,0c2,0 4,0 5,0c1,0 2,0 3,0c1,0 2,0 3,0c1,0 2,0 3,0c1,0 2,0 4,0c1,0 3,0 4,0c2,0 4,0 7,0c2,0 3.90778,0.49623 8,1c2.97751,0.36655 7.92578,0.49756 13,1c5.97079,0.59123 14,1 17,1c3,0 7,0 12,0c4,0 8,0 13,0c5,0 9,0 14,0c4,0 9,0 16,0c5,0 12,0 19,0c4,0 8.02921,0.59123 14,0c5.07422,-0.50244 8.02997,-1.51126 12,-2c4.09222,-0.50377 8.03876,-0.51945 11,-1c3.12146,-0.50655 5.02582,-0.67964 7,-1c3.12146,-0.50655 4.87854,-1.49345 8,-2c1.97418,-0.32036 5,-1 7,-1c2,0 4.87854,-1.49345 8,-2c2.96124,-0.48055 6.02673,-0.77025 7,-1c2.17627,-0.51375 3.87854,-1.49345 7,-2c1.97418,-0.32036 5,-1 7,-1c1,0 3.69342,-1.4588 5,-2c1.84778,-0.76537 4,-1 6,-1c2,0 4,-1 5,-1c2,0 3.15222,-0.23463 5,-1c1.30658,-0.5412 2,-1 5,-1c3,0 3.82373,-0.48625 6,-1c0.97327,-0.22975 3.22833,1.14806 6,0c1.30658,-0.5412 3.22833,0.14806 6,-1c2.6131,-1.0824 3.07611,-1.61731 4,-2c1.30658,-0.5412 2,-1 2,0c0,1 -1,1 -2,2c-1,1 -1.69257,3.186 -3,5c-0.8269,1.14726 -2,3 -3,4c-2,2 -3,4 -4,6c-1,2 -2.69257,3.186 -4,5c-0.8269,1.14726 -2.69257,4.186 -4,6c-1.65381,2.29454 -3.69257,4.186 -5,6c-1.65381,2.29454 -3,4 -4,5c-1,1 -1.69342,2.4588 -3,3c-0.92389,0.38269 -1,1 -2,2c-1,1 -1.4588,1.69344 -2,3c-0.38269,0.92387 0,2 0,3c0,1 -0.9021,2.82443 1,4c0.85065,0.52573 1.85272,1.1731 3,2c1.81396,1.30745 2.85272,2.1731 4,3c1.81396,1.30745 3,2 4,3c1,1 3,1 5,3c1,1 2.10339,1.90633 3,3c2.28589,2.78833 3.85272,4.1731 5,5c1.81396,1.30746 3,3 4,4c2,2 3.21167,2.71411 6,5c1.09369,0.89661 2,3 4,5c1,1 3,4 4,5c1,1 1.69342,3.4588 3,4c0.92389,0.38269 1,1 1,2c0,1 1,1 1,2c0,1 0,2 0,3c0,1 0,2 -1,2c-1,0 -2,0 -4,0c-1,0 -2.04291,-0.71021 -3,-1c-3.45087,-1.04483 -3.82373,-2.48627 -6,-3c-1.94647,-0.4595 -4.05353,-0.5405 -6,-1c-2.17627,-0.51373 -3.15222,-1.23462 -5,-2c-1.30658,-0.5412 -2.82373,-1.48627 -5,-2c-0.97327,-0.22977 -2,-2 -3,-2c-2,0 -3,-1 -4,-1c-1,0 -2,-1 -3,-1c-2,0 -3,-1 -5,-1c-1,0 -2,-2 -4,-2c-2,0 -2.69342,-0.4588 -4,-1c-1.84778,-0.76538 -3.29291,0.70709 -4,0c-0.70709,-0.70709 -1.29291,-0.29291 -2,-1c-0.70709,-0.70709 -1,-1 -2,-2c-1,-1 -1.29291,-1.29291 -2,-2c-0.70709,-0.70709 -1.29291,-0.29291 -2,-1c-0.70709,-0.70709 -0.29291,-1.29291 -1,-2c-0.70709,-0.70709 -2.07611,-0.61731 -3,-1c-1.30658,-0.5412 -2,-2 -3,-2c-1,0 -1.82373,-0.48627 -4,-1c-0.97327,-0.22977 -1.29291,-0.29291 -2,-1c-1.41418,-1.41422 -2.85272,-0.1731 -4,-1c-1.81396,-1.30746 -3.02673,-0.77023 -4,-1c-2.17627,-0.51373 -3.22833,0.14804 -6,-1c-1.30658,-0.5412 -4,-1 -6,-1c-3,0 -5.90778,-1.49622 -10,-2c-5.95502,-0.73309 -11,0 -17,0c-7,0 -10.92578,0.49756 -16,1c-3.98053,0.39417 -8.03873,-0.48056 -11,0c-3.12143,0.50653 -6.08026,0.31073 -9,1c-2.17624,0.51373 -5,1 -8,1c-3,0 -5.02249,-0.36655 -8,0c-4.09222,0.50378 -6,1 -10,1c-5,0 -9,0 -13,0c-5,0 -9,0 -11,0c-5,0 -9,0 -13,0c-6,0 -10,0 -14,0c-3,0 -7.02249,0.36655 -10,0c-4.09222,-0.50378 -6.87857,-1.49347 -10,-2c-1.97418,-0.32037 -4,0 -7,0c-2,0 -4.07843,0.21014 -7,-1c-2.06586,-0.85571 -5,-1 -7,-1c-2,0 -5,0 -7,0c-3,0 -4,0 -6,0c-2,0 -3,0 -5,0c-2,0 -3,0 -5,0c-1,0 -1,1 -1,2c0,1 0,2 0,3c0,2 -0.66251,4.31 1,7c2.2305,3.60901 5.7464,8.16119 9,13c2.78995,4.14923 7.1705,7.83868 10,11c4.27039,4.77115 5.88153,7.19028 9,9c3.86798,2.24469 6.81265,5.20682 9,7c2.78833,2.28589 4.71899,4.31021 8,7c2.78833,2.28589 4.21167,2.71411 7,5c2.18735,1.79318 4,4 6,6c2,2 4.41885,5.41885 6,7c1.58115,1.58115 4.4588,2.69345 5,4c0.38269,0.92389 1,2 3,4c1,1 0.33749,3.31 2,6c1.487,2.40601 2.48627,2.82376 3,5c0.4595,1.9465 1,3 1,4c0,1 -0.38269,2.07611 0,3c0.5412,1.30655 1,2 1,3l0,1l0,1l0,1" id="svg_2" stroke="#000" fill="none"/>
 </g>
</svg>