<svg width="800" height="600" xmlns="http://www.w3.org/2000/svg">
 <g id="Layer_1">
  <title>Layer 1</title>
  <path d="m292,265c1,0 0.42044,-1.08582 1,-3c1.04483,-3.45084 4.08502,-9.97211 7,-19c5.1507,-15.95212 10.98892,-27.47951 18,-42c7.02457,-14.54839 9.64011,-21.20956 15,-30c5.63113,-9.23529 9.92578,-17.04294 14,-24c2.94666,-5.03163 8.21005,-11.85075 11,-16c3.2536,-4.83881 5.65814,-9.36703 11,-14c3.77728,-3.27601 10.21167,-6.71412 13,-9c3.28101,-2.68979 6.15927,-5.61065 9,-7c3.23892,-1.58411 5.93414,-4.14429 8,-5c2.92157,-1.21015 5,-2 8,-2c3,0 7,0 12,0c4,0 7.21167,0.71412 10,3c1.09366,0.8966 3.28857,3.86829 5,8c1.21014,2.92156 3.49347,4.87856 4,8c0.32037,1.97417 -0.4595,3.0535 0,5c0.51373,2.17625 0.56952,5.133 2,9c0.77579,2.09717 2.37875,7.83208 4,12c2.63922,6.78488 5.66501,14.21939 11,22c5.65509,8.24742 9.42825,13.42336 14,19c6.27618,7.6557 11.6514,12.21106 16,19c4.63989,7.24371 11.06024,13.9503 16,20c4.0498,4.95976 8.19409,9.88855 11,15c2.15204,3.9203 3.7464,8.16119 7,13c2.78992,4.14925 5.21008,8.85075 8,13c3.2536,4.83881 6.14386,9.90656 10,16c3.1181,4.92722 4.61066,8.15927 6,11c1.58411,3.23892 2,4 2,6c0,1 0.70709,2.29291 0,3c-0.70709,0.70709 -1.82373,0.48627 -4,1c-1.94647,0.4595 -5,0 -9,0c-3,0 -7,-2 -11,-4c-4,-2 -10.42654,-7.64838 -16,-12c-4.59598,-3.58844 -11.22885,-6.72961 -16,-11c-3.16132,-2.8295 -6,-5 -9,-8c-4,-4 -6.4505,-5.4505 -9,-8c-2.5495,-2.54951 -4.724,-6.22273 -8,-10c-3.70639,-4.2735 -7,-7 -10,-10c-4,-4 -5.39099,-7.76952 -9,-10c-2.69,-1.66251 -4,-2 -5,-2c-1,0 -1,-1 -2,-1c-1,0 -2.29291,-0.70711 -3,0c-0.70709,0.70711 -1,2 -2,4c-1,2 -2,5 -2,7c0,4 0,7 0,12c0,4 -0.15277,9.04132 1,13c1.76828,6.07233 2.56952,10.133 4,14c1.55161,4.19434 4,8 6,13c2,5 3.56952,10.133 5,14c2.32739,6.29153 4.60703,9.17572 7,14c2.59106,5.22363 4.36166,10.30539 7,15c2.44962,4.35883 6.54901,7.60641 10,13c2.41028,3.76703 4.3851,8.37201 7,12c2.48071,3.4418 5.44839,6.80566 7,11c1.43048,3.867 1.24356,8.07217 2,12c1.01837,5.28799 1.50732,10.02432 2,15c0.50244,5.07422 0.88135,10.02521 2,15c0.90457,4.02264 1.49622,7.90778 2,12c0.48874,3.97003 2,7 3,11c1,4 2.9725,7.64749 4,12c0.68927,2.91974 1.49622,5.90778 2,10c0.24435,1.98502 -0.32037,5.02582 0,7c0.50653,3.12143 1.49347,4.87857 2,8c0.32037,1.97418 0,3 -1,3c-1,0 -2,0 -3,-1c-2,-2 -6,-5 -10,-9c-3,-3 -9,-8 -16,-13c-7,-5 -13.21262,-8.6712 -18,-12c-5.25717,-3.65543 -9.29361,-7.7265 -13,-12c-3.276,-3.77728 -6.7464,-9.16119 -10,-14c-2.78995,-4.14923 -6.54901,-8.60641 -10,-14c-2.41028,-3.76703 -5,-8 -8,-12c-3,-4 -5,-7 -7,-10c-2,-3 -4.34619,-4.70547 -6,-7c-1.30746,-1.814 -3.69254,-3.186 -5,-5c-0.8269,-1.14728 -2,-1 -4,-1c-1,0 -2,0 -4,0c-1,0 -4,2 -5,3c-2,2 -5.9502,5.04025 -10,10c-4.93976,6.04968 -10,12 -16,18c-5,5 -9.22272,8.724 -13,12c-4.2735,3.70639 -7,7 -10,9c-3,2 -6.50424,4.03552 -11,7c-3.54193,2.33554 -6.40317,5.03302 -11,7c-5.59229,2.39294 -13.09662,3.53375 -19,5c-6.13806,1.52454 -11.04132,2.84723 -15,4c-3.03616,0.88412 -5,2 -7,2c-2,0 -4,0 -6,0c-1,0 -2.48627,0.17624 -3,-2c-0.4595,-1.9465 0,-5 0,-8c0,-4 -0.45294,-8.11237 1,-13c1.53448,-5.16193 5.07193,-10.95328 7,-14c3.1181,-4.92722 7,-9 11,-12c4,-3 8.22272,-4.724 12,-8c4.2735,-3.70639 9.07278,-7.8819 14,-11c6.09344,-3.85614 10.46448,-6.46448 14,-10c3.53552,-3.53552 6.724,-7.22272 10,-11c2.77979,-3.20511 6.19409,-7.88855 9,-13c2.15204,-3.92029 3.83469,-8.08554 7,-14c3.80423,-7.10828 7.81116,-13.13882 13,-20c3.8623,-5.10712 9.70892,-10.50739 13,-16c3.91434,-6.53284 6.44879,-11.82425 9,-19c2.43878,-6.85947 3.44519,-13.03867 4,-17c1.00977,-7.20975 2,-11 2,-17c0,-4 0,-9 0,-13c0,-3 0,-6 0,-9c0,-3 0,-5 0,-7c0,-1 0.70709,-2.29289 0,-3c-0.70709,-0.70711 -2,1 -5,3c-3,2 -5,6 -8,9c-3,3 -6.55618,7.37506 -10,11c-5.37939,5.66234 -11.78326,8.7827 -17,13c-4.97949,4.0255 -9.77637,8.40894 -15,11c-4.82428,2.39297 -10,5 -14,7c-4,2 -8,3 -11,5c-3,2 -5.85272,3.1731 -7,4c-1.814,1.30746 -3.14935,1.47427 -4,2c-1.9021,1.17557 -1.69345,2.4588 -3,3c-0.92389,0.38269 -2,0 -2,1l-1,0" id="svg_1" stroke="#000" fill="none"/>
 </g>
</svg>